<?xml version="1.0" encoding="UTF-8"?><svg xmlns="http://www.w3.org/2000/svg" viewBox="0 0 1500 1500"><defs><style>.d{fill:#fff;}.e{fill:#ec672e;}</style></defs><g id="a"/><g id="b"><g id="c"><g><path class="d" d="M750,1485c-99.23,0-195.49-19.43-286.09-57.75-87.52-37.02-166.13-90.02-233.63-157.52s-120.5-146.11-157.52-233.63c-38.32-90.6-57.75-186.86-57.75-286.09s19.43-195.49,57.75-286.09c37.02-87.52,90.02-166.13,157.52-233.63s146.11-120.5,233.63-157.52c90.6-38.32,186.86-57.75,286.09-57.75s195.49,19.43,286.09,57.75c87.52,37.02,166.13,90.02,233.63,157.52s120.5,146.11,157.52,233.63c38.32,90.6,57.75,186.86,57.75,286.09s-19.43,195.49-57.75,286.09c-37.02,87.52-90.02,166.13-157.52,233.63s-146.11,120.5-233.63,157.52c-90.6,38.32-186.86,57.75-286.09,57.75Z"/><path class="e" d="M750,30c97.21,0,191.5,19.03,280.25,56.57,42.66,18.04,83.8,40.38,122.29,66.38,38.13,25.76,73.99,55.35,106.58,87.94,32.59,32.59,62.17,68.45,87.94,106.58,26,38.49,48.34,79.63,66.38,122.29,37.54,88.75,56.57,183.03,56.57,280.25s-19.03,191.5-56.57,280.25c-18.04,42.66-40.38,83.8-66.38,122.29-25.76,38.13-55.35,73.99-87.94,106.58-32.59,32.59-68.45,62.18-106.58,87.94-38.49,26-79.63,48.34-122.29,66.38-88.75,37.54-183.03,56.57-280.25,56.57s-191.5-19.03-280.25-56.57c-42.66-18.04-83.8-40.38-122.29-66.38-38.13-25.76-73.99-55.35-106.58-87.94-32.59-32.59-62.18-68.45-87.94-106.58-26-38.49-48.34-79.63-66.38-122.29-37.54-88.75-56.57-183.03-56.57-280.25s19.03-191.5,56.57-280.25c18.04-42.66,40.38-83.8,66.38-122.29,25.76-38.13,55.35-73.99,87.94-106.58,32.59-32.59,68.45-62.17,106.58-87.94,38.49-26,79.63-48.34,122.29-66.38,88.75-37.54,183.03-56.57,280.25-56.57h0m0-30h0C335.79,0,0,335.79,0,750H0c0,414.21,335.79,750,750,750h0c414.21,0,750-335.79,750-750h0C1500,335.79,1164.21,0,750,0h0Z"/></g><g><path class="e" d="M241.33,1008.83c.91-48.75-2.08-97.44-4.93-146.08-2.75-46.91-5.41-93.91-4.08-140.91,.7-24.66,2.48-49.3,5.76-73.75l-1.34,9.97c5.13-37.67,13.88-74.99,28.67-110.1l-3.78,8.96c8.82-20.77,19.71-40.53,33.48-58.45l-5.86,7.59c11.11-14.34,23.83-27.39,38.19-38.5l-7.59,5.86c11.06-8.47,23.02-15.71,35.84-21.19l-8.96,3.78c10.49-4.41,21.43-7.57,32.7-9.14l-9.97,1.34c9.79-1.29,19.66-1.35,29.46-.06l-9.97-1.34c4.84,.67,9.62,1.66,14.33,2.96,9.38,2.58,20.49,1.14,28.9-3.78,7.78-4.55,15.2-13.47,17.23-22.41,2.19-9.6,1.71-20.37-3.78-28.9s-12.8-14.59-22.41-17.23c-24.13-6.64-49.25-6.55-73.58-1.13-12.1,2.69-23.57,7.4-34.84,12.48-9.03,4.07-17.63,9.05-25.76,14.71-19.45,13.53-37.04,29.39-51.67,48.04-8.58,10.94-16.8,22.02-23.84,34.03-5.8,9.89-10.89,20.2-15.46,30.72-10.51,24.23-19.11,48.92-25.09,74.67-6.15,26.51-9.99,53.61-12.6,80.68-4.91,51.01-3.69,102.32-1.07,153.43,2.8,54.55,7.14,109.07,7.21,163.73,0,6.68-.05,13.37-.18,20.05-.18,9.5,4.31,19.84,10.98,26.52s17.18,11.4,26.52,10.98,19.76-3.62,26.52-10.98,10.79-16.29,10.98-26.52h0Z"/><path class="e" d="M404.6,287.59l-2.74,103-2.73,102.47-1.54,57.8c-.19,5.16,.88,9.98,3.23,14.45,1.51,4.65,4.1,8.67,7.75,12.07,3.4,3.66,7.42,6.24,12.07,7.75,4.47,2.35,9.28,3.42,14.45,3.23l9.97-1.34c6.35-1.78,11.87-5,16.55-9.64l5.86-7.59c3.39-5.85,5.1-12.16,5.12-18.93l2.74-103,2.73-102.47,1.54-57.8c.19-5.16-.88-9.98-3.23-14.45-1.51-4.65-4.1-8.67-7.75-12.07-3.4-3.66-7.42-6.24-12.07-7.75-4.47-2.35-9.28-3.42-14.45-3.23l-9.97,1.34c-6.35,1.78-11.87,5-16.55,9.64l-5.86,7.59c-3.39,5.85-5.1,12.16-5.12,18.93h0Z"/><path class="e" d="M455.37,501.58l34.94-.26,34.94-.26,19.72-.15c2.07,.08,3.99-.35,5.78-1.29,1.86-.6,3.47-1.64,4.83-3.1,1.46-1.36,2.5-2.97,3.1-4.83,.94-1.79,1.37-3.71,1.29-5.78l-.54-3.99c-.71-2.54-2-4.75-3.86-6.62l-3.04-2.35c-2.34-1.36-4.86-2.04-7.57-2.05l-34.94,.26-34.94,.26-19.72,.15c-2.07-.08-3.99,.35-5.78,1.29-1.86,.6-3.47,1.64-4.83,3.1-1.46,1.36-2.5,2.97-3.1,4.83-.94,1.79-1.37,3.71-1.29,5.78l.54,3.99c.71,2.54,2,4.75,3.86,6.62l3.04,2.35c2.34,1.36,4.86,2.04,7.57,2.05h0Z"/><path class="e" d="M520.45,498.08l-2.26,38.67-2.24,38.42-1.27,21.7c-.07,1.23,.61,2.68,1.46,3.54s2.29,1.52,3.54,1.46c2.84-.13,4.84-2.2,5-5l2.26-38.67,2.24-38.42,1.27-21.7c.07-1.23-.61-2.68-1.46-3.54s-2.29-1.52-3.54-1.46c-2.84,.13-4.84,2.2-5,5h0Z"/><path class="e" d="M604.89,486.98l1.38,43.64,1.38,43.76,.78,24.56c.04,1.31,.53,2.6,1.46,3.54,.87,.87,2.29,1.52,3.54,1.46,2.64-.12,5.09-2.2,5-5l-1.38-43.64-1.38-43.76-.78-24.56c-.04-1.31-.53-2.6-1.46-3.54-.87-.87-2.29-1.52-3.54-1.46-2.64,.12-5.09,2.2-5,5h0Z"/><path class="e" d="M526.92,509.81l30.8,25.9,30.7,25.82,17.31,14.56c1.04,.87,2.14,1.46,3.54,1.46,1.23,0,2.69-.54,3.54-1.46s1.52-2.2,1.46-3.54c-.06-1.26-.46-2.69-1.46-3.54l-30.8-25.9-30.7-25.82-17.31-14.56c-1.04-.87-2.14-1.46-3.54-1.46-1.23,0-2.69,.54-3.54,1.46s-1.52,2.2-1.46,3.54c.06,1.26,.46,2.69,1.46,3.54h0Z"/><path class="e" d="M521.51,535.37l32.12,25.34,31.92,25.18,18.02,14.21c1.08,.86,2.1,1.46,3.54,1.46,1.23,0,2.69-.54,3.54-1.46s1.52-2.2,1.46-3.54c-.06-1.23-.45-2.73-1.46-3.54l-32.12-25.34-31.92-25.18-18.02-14.21c-1.08-.86-2.1-1.46-3.54-1.46-1.23,0-2.69,.54-3.54,1.46s-1.52,2.2-1.46,3.54c.06,1.23,.45,2.73,1.46,3.54h0Z"/><path class="e" d="M522.22,572.56l33.09,24.38,9.35,6.89c.98,.72,2.73,.81,3.85,.5s2.42-1.22,2.99-2.3c.61-1.16,.92-2.57,.5-3.85l-.5-1.19c-.44-.75-1.04-1.35-1.79-1.79l-33.09-24.38-9.35-6.89c-.98-.72-2.73-.81-3.85-.5s-2.42,1.22-2.99,2.3c-.61,1.16-.92,2.57-.5,3.85l.5,1.19c.44,.75,1.04,1.35,1.79,1.79h0Z"/><path class="e" d="M523.33,601.38l34.98-18.59,34.98-18.59,19.64-10.44c2.31-1.23,3.22-4.63,1.79-6.84-1.52-2.35-4.37-3.11-6.84-1.79l-34.98,18.59-34.98,18.59-19.64,10.44c-2.31,1.23-3.22,4.63-1.79,6.84,1.52,2.35,4.37,3.11,6.84,1.79h0Z"/><path class="e" d="M525.54,566.57l33.05-18.61,32.94-18.55,18.59-10.47c2.28-1.28,3.24-4.6,1.79-6.84s-4.4-3.17-6.84-1.79l-33.05,18.61-32.94,18.55-18.59,10.47c-2.28,1.28-3.24,4.6-1.79,6.84s4.4,3.17,6.84,1.79h0Z"/><path class="e" d="M531.35,532.29l30.88-14.82,30.88-14.82,17.35-8.33c1.08-.52,1.99-1.87,2.3-2.99,.33-1.2,.18-2.79-.5-3.85s-1.71-2.01-2.99-2.3c-1.37-.31-2.58-.1-3.85,.5l-30.88,14.82-30.88,14.82-17.35,8.33c-1.08,.52-1.99,1.87-2.3,2.99-.33,1.2-.18,2.79,.5,3.85s1.71,2.01,2.99,2.3c1.37,.31,2.58,.1,3.85-.5h0Z"/><path class="e" d="M610.34,567.96l-31.86,20.46-9.01,5.79c-1.09,.7-1.95,1.72-2.3,2.99-.33,1.2-.18,2.79,.5,3.85,1.42,2.2,4.49,3.31,6.84,1.79l31.86-20.46,9.01-5.79c1.09-.7,1.95-1.72,2.3-2.99,.33-1.2,.18-2.79-.5-3.85-1.42-2.2-4.49-3.31-6.84-1.79h0Z"/><path class="e" d="M542.69,490.46l24.32,20.66,24.32,20.66,13.68,11.62c1.03,.87,2.14,1.46,3.54,1.46,1.23,0,2.69-.54,3.54-1.46s1.52-2.2,1.46-3.54c-.06-1.26-.46-2.69-1.46-3.54l-24.32-20.66-24.32-20.66-13.68-11.62c-1.03-.87-2.14-1.46-3.54-1.46-1.23,0-2.69,.54-3.54,1.46s-1.52,2.2-1.46,3.54c.06,1.26,.46,2.69,1.46,3.54h0Z"/><path class="e" d="M550.52,500.73l30.96,.37,30.71,.37,17.48,.21c2.07,.08,3.99-.35,5.78-1.29,1.86-.6,3.47-1.64,4.83-3.1,1.46-1.36,2.5-2.97,3.1-4.83,.94-1.79,1.37-3.71,1.29-5.78l-.54-3.99c-.71-2.54-2-4.75-3.86-6.62l-3.04-2.35c-2.34-1.36-4.86-2.04-7.57-2.05l-30.96-.37-30.71-.37-17.48-.21c-2.07-.08-3.99,.35-5.78,1.29-1.86,.6-3.47,1.64-4.83,3.1-1.46,1.36-2.5,2.97-3.1,4.83-.94,1.79-1.37,3.71-1.29,5.78l.54,3.99c.71,2.54,2,4.75,3.86,6.62l3.04,2.35c2.34,1.36,4.86,2.04,7.57,2.05h0Z"/><path class="e" d="M209.25,793.05h125.52c5.16,.19,9.98-.88,14.45-3.23,4.65-1.51,8.67-4.1,12.07-7.75,3.66-3.4,6.24-7.42,7.75-12.07,2.35-4.47,3.42-9.28,3.23-14.45l-1.34-9.97c-1.78-6.35-5-11.87-9.64-16.55l-7.59-5.86c-5.85-3.39-12.16-5.1-18.93-5.12h-125.52c-5.16-.19-9.98,.88-14.45,3.23-4.65,1.51-8.67,4.1-12.07,7.75-3.66,3.4-6.24,7.42-7.75,12.07-2.35,4.47-3.42,9.28-3.23,14.45l1.34,9.97c1.78,6.35,5,11.87,9.64,16.55l7.59,5.86c5.85,3.39,12.16,5.1,18.93,5.12h0Z"/><path class="e" d="M575.09,709.04c4.82,.18,9.31-.82,13.48-3.01,4.34-1.41,8.09-3.82,11.26-7.24,3.41-3.17,5.83-6.92,7.24-11.26,2.19-4.17,3.2-8.67,3.01-13.48l-1.25-9.3c-1.66-5.93-4.66-11.08-9-15.44l-7.08-5.47c-5.46-3.17-11.35-4.76-17.67-4.78-4.82-.18-9.31,.82-13.48,3.01-4.34,1.41-8.09,3.82-11.26,7.24-3.41,3.17-5.83,6.92-7.24,11.26-2.19,4.17-3.2,8.67-3.01,13.48l1.25,9.3c1.66,5.93,4.66,11.08,9,15.44l7.08,5.47c5.46,3.17,11.35,4.76,17.67,4.78h0Z"/><path class="e" d="M423.84,1020.27l.63-62.35,.63-62.1,.35-35.16c.17-4.47-.76-8.65-2.8-12.52-1.31-4.03-3.55-7.52-6.72-10.46-2.94-3.17-6.43-5.41-10.46-6.72-3.87-2.03-8.05-2.97-12.52-2.8l-8.64,1.16c-5.51,1.54-10.29,4.33-14.34,8.36l-5.08,6.58c-2.94,5.07-4.42,10.54-4.44,16.4l-.63,62.35-.63,62.1-.35,35.16c-.17,4.47,.76,8.65,2.8,12.52,1.31,4.03,3.55,7.52,6.72,10.46,2.94,3.17,6.43,5.41,10.46,6.72,3.87,2.03,8.05,2.97,12.52,2.8l8.64-1.16c5.51-1.54,10.29-4.33,14.34-8.36l5.08-6.58c2.94-5.07,4.42-10.54,4.44-16.4h0Z"/><path class="e" d="M411.03,921.2c9.57-6.91,19.86-12.77,30.74-17.37l-7.76,3.28c11.6-4.87,23.79-8.26,36.26-9.95l-8.64,1.16c3.08-.41,6.17-.71,9.27-.92,4.47,.17,8.65-.76,12.52-2.8,4.03-1.31,7.52-3.55,10.46-6.72,3.17-2.94,5.41-6.43,6.72-10.46,2.03-3.87,2.97-8.05,2.8-12.52l-1.16-8.64c-1.54-5.51-4.33-10.29-8.36-14.34l-6.58-5.08c-5.07-2.94-10.54-4.42-16.4-4.44-8.04,.53-16.07,1.61-23.99,3.03-5.25,.95-10.45,2.2-15.56,3.73-7.68,2.31-15,5.41-22.38,8.54-5.11,2.17-10.1,4.59-14.95,7.29-5.46,3.04-10.72,6.42-15.79,10.08-3.79,2.04-6.83,4.83-9.12,8.37-2.87,3.14-4.81,6.82-5.82,11.05-1.35,4.32-1.55,8.64-.58,12.96,.2,4.33,1.48,8.35,3.86,12.08l5.08,6.58c4.06,4.03,8.84,6.81,14.34,8.36l8.64,1.16c5.87-.02,11.33-1.5,16.4-4.44h0Z"/><path class="e" d="M542.72,894.49v116.41c-.17,4.47,.76,8.65,2.8,12.52,1.31,4.03,3.55,7.52,6.72,10.46,2.94,3.17,6.43,5.41,10.46,6.72,3.87,2.03,8.05,2.97,12.52,2.8l8.64-1.16c5.51-1.54,10.29-4.33,14.34-8.36l5.08-6.58c2.94-5.07,4.42-10.54,4.44-16.4v-116.41c.17-4.47-.76-8.65-2.8-12.52-1.31-4.03-3.55-7.52-6.72-10.46-2.94-3.17-6.43-5.41-10.46-6.72-3.87-2.03-8.05-2.97-12.52-2.8l-8.64,1.16c-5.51,1.54-10.29,4.33-14.34,8.36l-5.08,6.58c-2.94,5.07-4.42,10.54-4.44,16.4h0Z"/><path class="e" d="M770.23,981.54c-4.5,1.9-9.21,3.18-14.04,3.84l8.64-1.16c-4.9,.63-9.85,.6-14.74-.05l8.64,1.16c-5.08-.71-10.03-2.09-14.76-4.06l7.76,3.28c-5-2.12-9.68-4.87-13.99-8.16l6.58,5.08c-4.66-3.61-8.81-7.82-12.42-12.48l5.08,6.58c-4.39-5.72-7.94-12.02-10.76-18.65l3.28,7.76c-3.49-8.29-5.82-17.03-7.05-25.95l1.16,8.64c-1.21-9.07-1.27-18.26-.06-27.34l-1.16,8.64c1.13-8.19,3.32-16.19,6.52-23.81l-3.28,7.76c2.99-7.04,6.81-13.69,11.49-19.74l-5.08,6.58c3.87-4.96,8.28-9.47,13.25-13.33l-6.58,5.08c4.12-3.16,8.58-5.84,13.36-7.88l-7.76,3.28c3.79-1.58,7.73-2.75,11.8-3.33l-8.64,1.16c2.98-.38,5.97-.43,8.96-.05l-8.64-1.16c2.39,.34,4.71,.94,6.95,1.86l-7.76-3.28c2.22,.94,4.28,2.16,6.19,3.62l-6.58-5.08c1.98,1.55,3.75,3.33,5.3,5.31l-5.08-6.58c1.6,2.09,2.91,4.35,3.95,6.76l-3.28-7.76c1.05,2.55,1.76,5.19,2.14,7.92l-1.16-8.64c.39,3.13,.35,6.27-.06,9.39l1.16-8.64c-.52,3.63-1.52,7.15-2.94,10.54l3.28-7.76c-1.51,3.53-3.44,6.84-5.79,9.88l5.08-6.58c-2.17,2.76-4.67,5.19-7.44,7.36l6.58-5.08c-3.97,3.04-8.34,5.43-12.93,7.4l7.76-3.28c-5.27,2.22-10.74,3.9-16.21,5.53-4.23,1.01-7.91,2.94-11.05,5.82-3.54,2.29-6.33,5.33-8.37,9.12-2.38,3.73-3.66,7.76-3.86,12.08-.97,4.32-.77,8.64,.58,12.96l3.28,7.76c2.89,4.88,6.78,8.77,11.66,11.66l7.76,3.28c5.76,1.55,11.52,1.55,17.28,0,9.01-2.69,17.67-5.84,26.23-9.81,3.01-1.4,5.91-3.01,8.64-4.9,3.43-2.38,6.74-4.98,9.95-7.65,1.31-1.09,2.56-2.25,3.72-3.49,3.83-4.09,7.34-8.63,10.26-13.42s5.19-10.43,7.13-15.79,2.58-11.49,3.29-17.38-.28-11.64-1.15-17.64c-.84-5.81-3.31-11.04-5.72-16.39-2.29-5.07-6.12-9.64-9.65-13.77-.93-1.09-1.94-2.11-3.02-3.06-3.13-2.74-6.43-5.35-9.92-7.61-1.05-.68-2.15-1.28-3.28-1.81-3.88-1.8-7.92-3.72-12.1-4.84s-8.76-1.52-13.06-1.97c-1.93-.2-3.88-.22-5.82-.08-2.19,.16-4.39,.52-6.56,.81s-4.39,.53-6.56,.95c-1.95,.38-3.86,.89-5.74,1.52-5.31,1.77-10.53,3.99-15.51,6.56-2.41,1.24-4.73,2.65-6.95,4.21-6.74,4.71-13.35,9.9-18.84,16.07-3.7,4.15-7.07,8.61-10.32,13.11-1.74,2.42-3.35,4.92-4.84,7.51s-2.95,5.46-4.21,8.3c-2.36,5.31-4.72,10.7-6.56,16.23-2.9,8.72-4.12,17.65-5.24,26.76-.79,6.41-.94,12.89-.49,19.33,.42,5.97,1.27,11.94,2.21,17.84,.5,3.16,1.15,6.3,1.94,9.4,2.21,8.67,5.67,17.03,9.45,25.11,1.32,2.82,2.79,5.58,4.4,8.24,2.96,4.89,6.52,9.3,10.02,13.81,1.85,2.38,3.82,4.66,5.96,6.8,4.08,4.08,8.75,7.53,13.34,11,7.03,5.3,14.96,8.74,23.16,11.9s16.78,4.29,25.28,4.9c2.88,.21,5.77,.19,8.64-.05,5.62-.48,11.34-1.16,16.84-2.5,2.85-.7,5.64-1.63,8.35-2.77,4.23-1.01,7.91-2.94,11.05-5.82,3.54-2.29,6.33-5.33,8.37-9.12,2.38-3.73,3.66-7.76,3.86-12.08,.97-4.32,.77-8.64-.58-12.96l-3.28-7.76c-2.89-4.88-6.78-8.77-11.66-11.66l-7.76-3.28c-5.76-1.55-11.52-1.55-17.28,0h0Z"/><path class="e" d="M919.55,1024.05l.63-62.35,.63-62.1,.35-35.16c.17-4.47-.76-8.65-2.8-12.52-1.31-4.03-3.55-7.52-6.72-10.46-2.94-3.17-6.43-5.41-10.46-6.72-3.87-2.03-8.05-2.97-12.52-2.8l-8.64,1.16c-5.51,1.54-10.29,4.33-14.34,8.36l-5.08,6.58c-2.94,5.07-4.42,10.54-4.44,16.4l-.63,62.35-.63,62.1-.35,35.16c-.17,4.47,.76,8.65,2.8,12.52,1.31,4.03,3.55,7.52,6.72,10.46,2.94,3.17,6.43,5.41,10.46,6.72,3.87,2.03,8.05,2.97,12.52,2.8l8.64-1.16c5.51-1.54,10.29-4.33,14.34-8.36l5.08-6.58c2.94-5.07,4.42-10.54,4.44-16.4h0Z"/><path class="e" d="M906.74,924.98c9.75-7.06,19.83-13.94,30.96-18.66l-7.76,3.28c4.57-1.92,9.32-3.44,14.25-4.14l-8.64,1.16c3.01-.4,6.04-.48,9.05-.08l-8.64-1.16c2.23,.32,4.39,.89,6.47,1.75l-7.76-3.28c2.07,.88,3.99,2.02,5.77,3.39l-6.58-5.08c2.05,1.61,3.84,3.49,5.44,5.55l-5.08-6.58c3.46,4.56,5.92,9.89,8.15,15.14l-3.28-7.76c5.35,12.72,8.72,26.22,11.13,39.78,.72,4.07,1.35,8.15,1.9,12.24l-1.16-8.64c2.49,18.53,3.47,37.26,3.53,55.95,.02,4.78-.03,9.56-.14,14.33-.17,4.47,.76,8.65,2.8,12.52,1.31,4.03,3.55,7.52,6.72,10.46,2.94,3.17,6.43,5.41,10.46,6.72,3.87,2.03,8.05,2.97,12.52,2.8l8.64-1.16c5.51-1.54,10.29-4.33,14.34-8.36l5.08-6.58c2.94-5.07,4.42-10.54,4.44-16.4,.36-15.95,.07-31.93-1.09-47.84-.83-11.33-2.23-22.58-3.84-33.82-1.18-8.26-2.69-16.47-4.67-24.58-1.86-7.62-4.14-15.16-7.05-22.45-2.37-5.92-4.8-11.87-7.71-17.55-2.91-5.69-6.7-10.71-10.86-15.59-1.1-1.29-2.31-2.5-3.61-3.59-3.15-2.62-6.49-5.45-10.09-7.55s-7.66-3.6-11.46-5.05c-1.34-.51-2.72-.9-4.13-1.18-5.49-1.09-11.5-2.05-17.19-1.58s-11.87,1.22-17.54,2.87c-5.71,1.65-11.24,4.17-16.63,6.56-3.13,1.39-6.18,2.96-9.16,4.64-5.78,3.26-11.3,6.95-16.72,10.78-1.22,.87-2.44,1.74-3.66,2.62-3.79,2.04-6.83,4.83-9.12,8.37-2.87,3.14-4.81,6.82-5.82,11.05-1.35,4.32-1.55,8.64-.58,12.96,.2,4.33,1.48,8.35,3.86,12.08l5.08,6.58c4.06,4.03,8.84,6.81,14.34,8.36l8.64,1.16c5.87-.02,11.33-1.5,16.4-4.44h0Z"/><path class="e" d="M1084.02,863.49c3.94,5.1,7.86,10.1,12.06,14.97,2.62,3.03,5.22,6.08,7.67,9.25l-5.08-6.58c8.62,11.19,14.87,23.86,20.97,36.54,1.86,3.87,3.65,7.77,5.33,11.72l-3.28-7.76c4.14,9.84,7.52,20.04,8.99,30.64l-1.16-8.64c.9,6.73,.99,13.53,.13,20.27l1.16-8.64c-1.08,8.02-3.31,15.88-6.44,23.33l3.28-7.76c-2.99,7.04-6.81,13.69-11.49,19.74l5.08-6.58c-3.87,4.96-8.28,9.47-13.25,13.33l6.58-5.08c-4.12,3.16-8.58,5.84-13.36,7.88l7.76-3.28c-3.79,1.58-7.73,2.75-11.8,3.33l8.64-1.16c-2.98,.38-5.97,.43-8.96,.05l8.64,1.16c-2.39-.34-4.71-.94-6.95-1.86l7.76,3.28c-2.22-.94-4.28-2.16-6.19-3.62l6.58,5.08c-1.98-1.55-3.75-3.33-5.3-5.31l5.08,6.58c-1.6-2.09-2.91-4.35-3.95-6.76l3.28,7.76c-1.05-2.55-1.76-5.19-2.14-7.92l1.16,8.64c-.39-3.13-.35-6.27,.06-9.39l-1.16,8.64c.52-3.63,1.52-7.15,2.94-10.54l-3.28,7.76c1.51-3.53,3.44-6.84,5.79-9.88l-5.08,6.58c2.17-2.76,4.67-5.19,7.44-7.36l-6.58,5.08c3.97-3.04,8.34-5.43,12.93-7.4l-7.76,3.28c5.27-2.22,10.74-3.9,16.21-5.53,4.23-1.01,7.91-2.94,11.05-5.82,3.54-2.29,6.33-5.33,8.37-9.12,2.38-3.73,3.66-7.76,3.86-12.08,.97-4.32,.77-8.64-.58-12.96l-3.28-7.76c-2.89-4.88-6.78-8.77-11.66-11.66l-7.76-3.28c-5.76-1.55-11.52-1.55-17.28,0-2.92,.87-5.85,1.75-8.74,2.73-5.45,1.83-10.73,4.11-15.99,6.41-8.01,3.51-15.28,8.75-21.71,14.64-3.92,3.6-7.13,8.11-10.24,12.34-1.66,2.26-3.11,4.68-4.31,7.21-2.35,4.94-4.7,10.12-6.09,15.46s-2.16,11.16-2.4,16.77c-.06,1.44-.03,2.88,.09,4.31,.35,4.2,.87,8.41,1.73,12.54,.29,1.41,.69,2.8,1.18,4.16,1.39,3.83,2.94,7.64,4.8,11.27,.62,1.22,1.33,2.39,2.12,3.51,2.31,3.31,4.75,6.58,7.47,9.57,.84,.93,1.74,1.8,2.69,2.61,2.46,2.1,5.09,4.02,7.67,5.97,.6,.45,1.21,.9,1.84,1.31,1,.65,2.04,1.24,3.12,1.76,3.73,1.78,7.56,3.54,11.53,4.73,1.44,.43,2.91,.73,4.4,.95,4.34,.64,9.06,1.53,13.56,1.43,4.24-.09,8.5-.87,12.68-1.48,1.8-.26,3.59-.61,5.35-1.09,5.42-1.47,10.67-3.86,15.74-6.18,7.01-3.21,12.94-7.96,18.97-12.72,4.08-3.22,7.79-6.91,11.11-10.92,5.17-6.25,10.18-12.77,14.1-19.9,1.37-2.5,2.63-5.07,3.76-7.7,2.18-5.05,4.43-10.12,6.17-15.35,2.76-8.33,4.01-16.83,5.07-25.54,.78-6.45,.7-12.95-.13-19.39-1.17-9.21-2.54-18.08-5.4-26.91-2.83-8.76-6.53-17.27-10.31-25.65-2.71-5.99-5.65-11.88-8.61-17.75s-5.89-11.42-9.39-16.83c-6.42-9.94-14.17-18.87-21.8-27.88-1.31-1.55-2.6-3.11-3.84-4.71l5.08,6.58-.17-.22c-2.04-3.79-4.83-6.83-8.37-9.12-3.14-2.87-6.82-4.81-11.05-5.82-4.32-1.35-8.64-1.55-12.96-.58-4.33,.2-8.35,1.48-12.08,3.86l-6.58,5.08c-4.03,4.06-6.81,8.84-8.36,14.34l-1.16,8.64c.02,5.87,1.5,11.33,4.44,16.4h0Z"/><path class="e" d="M1327.73,808.86c-6.86-.15-13.75-.27-20.6,.36-9.37,.86-18.99,2.02-27.76,5.63-5.21,2.14-10.63,4.15-15.34,7.33s-8.99,6.43-12.89,10.28-7.19,8.35-10.34,12.74c-1.68,2.35-3.16,4.85-4.39,7.47-2.35,5-4.75,10.27-6.14,15.67s-2.18,11.38-2.43,17.09,.73,12.07,1.81,17.81c.56,2.97,1.46,5.84,2.62,8.62,2.16,5.22,4.15,10.45,7.27,15.17,3.04,4.6,6.45,9.03,10.2,13.08,1.91,2.06,3.97,3.98,6.17,5.72,4.63,3.68,9.21,7.33,14.32,10.31,12.6,7.36,26.95,11.38,38.63,20.34l-6.58-5.08c3.72,2.89,7.11,6.17,10,9.89l-5.08-6.58c2.34,3.07,4.3,6.39,5.82,9.95l-3.28-7.76c1.46,3.51,2.45,7.15,2.97,10.91l-1.16-8.64c.55,4.22,.51,8.48-.04,12.7l1.16-8.64c-.68,4.94-2.03,9.74-3.97,14.33l3.28-7.76c-1.93,4.5-4.39,8.73-7.37,12.62l5.08-6.58c-2.58,3.32-5.52,6.34-8.84,8.93l6.58-5.08c-3.06,2.34-6.39,4.21-9.94,5.71l7.76-3.28c-4.32,1.79-8.83,2.96-13.46,3.59l8.64-1.16c-6.19,.8-12.42,.62-18.6-.18l8.64,1.16c-6.85-.92-13.56-2.59-20.15-4.66-4.32-1.35-8.64-1.55-12.96-.58-4.33,.2-8.35,1.48-12.08,3.86-3.79,2.04-6.83,4.83-9.12,8.37-2.87,3.14-4.81,6.82-5.82,11.05l-1.16,8.64c.02,5.87,1.5,11.33,4.44,16.4l5.08,6.58c4.06,4.03,8.84,6.81,14.34,8.36,10,3.14,20.07,4.86,30.49,6.03,3.73,.42,7.49,.6,11.24,.45,1.89-.07,3.78-.24,5.66-.48,4.52-.57,9.14-1.04,13.61-2.05,1.86-.42,3.69-.94,5.49-1.56,4.27-1.48,8.45-3.3,12.54-5.21,2.9-1.35,5.61-2.99,8.16-4.93,4.57-3.47,9.15-6.79,12.97-11.07,2.77-3.1,5.24-6.5,7.74-9.8,.96-1.27,1.87-2.57,2.73-3.91,1.71-2.68,3.17-5.51,4.43-8.43,2.33-5.42,4.8-10.8,6.2-16.55,.37-1.53,.68-3.08,.92-4.64,.66-4.35,1.37-8.76,1.64-13.16,.37-6.03-.65-11.93-1.5-17.9-.47-3.29-1.29-6.52-2.5-9.62-2.19-5.64-4.46-11.46-7.88-16.52-2.43-3.59-5.15-7.02-7.92-10.35-1.04-1.24-2.13-2.44-3.28-3.58-4.16-4.14-9.01-7.71-13.73-11.13-12.33-8.91-27.39-12.79-40.1-21.04-1.4-.91-2.77-1.87-4.09-2.89l6.58,5.08c-3.59-2.8-6.84-6.01-9.64-9.59l5.08,6.58c-2.49-3.23-4.59-6.73-6.2-10.48l3.28,7.76c-1.43-3.41-2.42-6.95-2.94-10.61l1.16,8.64c-.47-3.56-.47-7.13-.01-10.69l-1.16,8.64c.53-3.83,1.56-7.54,3.05-11.11l-3.28,7.76c1.63-3.83,3.74-7.41,6.28-10.7l-5.08,6.58c2.4-3.06,5.13-5.82,8.19-8.22l-6.58,5.08c3.03-2.34,6.32-4.2,9.84-5.7l-7.76,3.28c5.01-2.09,10.28-3.36,15.65-4.08l-8.64,1.16c7.98-1.04,16.04-.92,24.07-.75,4.47,.17,8.65-.76,12.52-2.8,4.03-1.31,7.52-3.55,10.46-6.72,3.17-2.94,5.41-6.43,6.72-10.46,2.03-3.87,2.97-8.05,2.8-12.52l-1.16-8.64c-1.54-5.51-4.33-10.29-8.36-14.34l-6.58-5.08c-5.07-2.94-10.54-4.42-16.4-4.44h0Z"/></g></g></g></svg>